<?xml version="1.0" standalone="no"?>
<!DOCTYPE svg PUBLIC "-//W3C//DTD SVG 20010904//EN"
 "http://www.w3.org/TR/2001/REC-SVG-20010904/DTD/svg10.dtd">
<svg version="1.0" xmlns="http://www.w3.org/2000/svg"
 width="700.000000pt" height="700.000000pt" viewBox="0 0 700.000000 700.000000"
 preserveAspectRatio="xMidYMid meet">
<metadata>
Created by potrace 1.11, written by Peter Selinger 2001-2013
</metadata>
<g transform="translate(0.000000,700.000000) scale(0.100000,-0.100000)"
fill="#000000" stroke="none">
<path d="M3298 6995 c-2 -1 -41 -5 -88 -9 -100 -7 -225 -22 -295 -36 -27 -5
-63 -12 -80 -15 -75 -13 -98 -18 -225 -51 -302 -79 -589 -197 -865 -357 -103
-60 -289 -180 -305 -197 -3 -3 -41 -32 -84 -65 -206 -155 -444 -393 -620 -619
-333 -428 -577 -966 -672 -1481 -9 -49 -17 -97 -19 -105 -2 -9 -6 -43 -10 -75
-4 -33 -9 -69 -11 -80 -18 -98 -25 -570 -10 -715 8 -81 24 -207 32 -255 3 -16
7 -39 9 -50 14 -103 84 -372 133 -515 54 -157 91 -248 158 -387 411 -847 1131
-1486 2023 -1795 63 -22 123 -42 133 -44 24 -5 34 -8 153 -39 116 -30 283 -63
370 -71 33 -3 63 -8 66 -9 15 -10 227 -20 409 -20 188 0 341 8 430 21 144 21
295 48 345 61 33 8 67 16 75 18 113 23 378 114 549 188 120 51 307 146 353
178 14 11 29 19 33 19 3 0 64 38 135 85 286 190 494 373 745 656 59 66 199
255 270 364 200 306 366 683 454 1030 29 114 69 321 77 396 3 35 8 67 10 70 9
17 19 214 18 399 0 188 -6 331 -19 420 -3 19 -7 56 -10 81 -3 25 -7 54 -9 65
-2 10 -11 60 -21 109 -123 661 -462 1305 -938 1785 -89 90 -171 167 -242 225
-33 28 -62 53 -65 56 -13 15 -205 152 -295 211 -350 227 -765 398 -1172 483
-99 20 -245 43 -393 60 -54 7 -526 16 -532 10z m762 -2101 c212 -37 414 -133
572 -272 l58 -51 -33 -26 c-44 -36 -50 -41 -144 -113 l-81 -63 -54 41 c-169
130 -442 200 -655 168 -32 -4 -69 -10 -83 -12 -123 -18 -311 -98 -431 -184
-136 -97 -161 -121 -294 -275 -93 -108 -222 -391 -240 -525 -3 -20 -8 -59 -12
-87 -8 -62 -9 -192 -1 -265 35 -307 224 -586 488 -720 237 -121 556 -126 820
-13 55 24 174 84 184 93 8 8 141 -88 219 -156 l28 -25 -48 -34 c-223 -158
-455 -249 -718 -281 -49 -6 -262 -6 -282 0 -10 3 -40 8 -68 11 -136 15 -371
115 -498 212 -226 173 -372 405 -443 703 -44 188 -39 452 12 655 24 96 65 213
96 277 15 32 28 60 28 63 0 6 102 179 109 185 4 3 15 19 25 35 38 60 83 112
191 220 240 241 550 402 850 441 28 3 52 8 54 10 10 9 278 0 351 -12z"/>
</g>
</svg>
